<?xml version="1.0" encoding="utf-8"?>
<!-- Generator: Adobe Illustrator 18.1.1, SVG Export Plug-In . SVG Version: 6.00 Build 0)  -->
<svg version="1.1" id="Layer_1" xmlns="http://www.w3.org/2000/svg" xmlns:xlink="http://www.w3.org/1999/xlink" x="0px" y="0px"
	 viewBox="0 0 128 30" enable-background="new 0 0 128 30" xml:space="preserve">
<g>
	<path d="M24,7.8c0.9,1.3,1.1,3.8,1.1,5.5c0,3.5,0,5.7,0,7.3c0,6.3,0,6.2,2.3,6.8c0.6,0.1,1.3,0.2,1.3,0.6c0,0.4-0.4,0.4-1,0.4
		c-0.6,0-3.5-0.2-4.9-0.2c-1.4,0-4.5,0.2-5.2,0.2c-0.9,0-1.3,0-1.3-0.3c0-0.5,1-0.4,1.9-0.7c1-0.4,1.7-0.6,1.9-2
		c0.2-1.4,0.2-3.3,0.2-7.2c0-4.7,0-7.5-1.1-8.8c-1.1-1.3-2.3-1.7-4.2-1.7c-2,0-3.7,1.4-4.3,2.5c-0.9,1.6-0.9,4.8-0.9,7.9
		c0,4.2,0,6.1,0.3,7.5c0.1,0.8,0.8,1.2,1.6,1.5c0.6,0.3,1.7,0.4,1.7,0.8c0,0.4-0.7,0.4-1.2,0.4c-0.5,0-4.1-0.2-5-0.2
		s-4.8,0.2-5.2,0.2c-0.7,0-0.9,0-0.9-0.4c0-0.4,0.8-0.5,1.7-0.7c1.1-0.3,1.7-0.5,1.9-1.6C4.9,24,4.9,21,4.9,16.4
		c0-3.2,0-5.2-0.5-5.8C4.2,10.3,3.7,10,3,9.9C2.2,9.8,1.7,9.8,1.7,9.5c0-0.3,0.1-0.4,0.4-0.4c2.2-0.7,4.3-2.2,6.4-4
		C8.7,4.9,9,4.7,9.3,4.7c0.4,0,0.5,0.5,0.5,1.1v2.5c0,0.3,0.1,0.7,0.4,0.7c0.9,0,3-4,7.9-4C21,4.9,22.8,6.1,24,7.8z"/>
	<path d="M40.5,25.3C39.3,27,37,29,33.9,29c-3.2,0-4.4-2.5-4.4-4.3c0-3.9,3.9-5.7,6.9-7.2c4.8-2.4,4.9-1.8,4.9-6.9
		c0-1.5,0.1-2.6-0.3-3.3c-0.7-1.3-1.6-1.6-2.9-1.6c-3.4,0-4.5,3.2-5.3,5.6c-0.3,1-1.7,1.6-2.6,1.6c-0.5,0-1.3-0.4-1.3-1.2
		c0-2.3,3.7-7.2,10.2-7.2c3.1,0,6.6,0.6,6.6,4.6c0,3.2-0.4,11.9-0.4,13.5c0,1.6,0.3,3.2,1.9,3.2c1.6,0,2.5-1.4,2.9-1.4
		c0.2,0,0.3,0.2,0.3,0.4c0,0.9-2,3.8-5.3,3.8c-2.2,0-3.7-1.5-4.2-3.1c0-0.2-0.1-0.3-0.3-0.3C40.6,25.2,40.5,25.2,40.5,25.3z
		 M40.1,17c-0.7,0-6.3,2.7-6.3,6.5c0,2.1,1.6,3,2.9,3c1.3,0,2.3-0.7,3.2-2c1-1.4,1.1-3.9,1.1-6.5C40.9,17.3,40.7,17,40.1,17z"/>
	<path d="M57.7,1.5c0,1-0.1,2.6-0.1,3.6c0,0.5,0.2,0.8,0.6,0.8l11.4-0.4c1.1,0,1.2,0.2,1.2,1.3c0,2.2-0.1,4.3-0.1,14.6
		c0,2.6,1.2,4.3,4.7,4.3c2,0,4-0.9,4.8-2.4c0.6-1.1,0.6-4.3,0.6-6.9c0-5.6,0-8.3-0.6-8.8c-0.5-0.5-1.3-0.6-2.3-0.7
		c-1.1-0.1-1.5-0.1-1.5-0.5c0-0.3,0.1-0.5,0.9-0.5l7.5-0.2c0.9,0,1.1,0.3,1.1,1c0,1.9-0.4,8.2-0.4,13.1c0,3,0,5.2,0.4,5.8
		c0.3,0.5,0.8,0.6,1.9,0.6c0.4,0,1.2-0.1,1.4-0.1c0.2,0,0.4,0.1,0.4,0.4c0,0.3-0.3,0.4-0.9,0.5c-1,0.2-5,1.2-6.8,1.9
		c-0.3,0.1-0.8,0.3-0.9,0.3c-0.4,0-0.5-0.3-0.5-0.9c0-0.8,0.1-1.4,0.1-2.4c0-0.4-0.1-0.8-0.4-0.8c-0.6,0-3.4,3.9-7.9,3.9
		c-2.7,0-6.5-1.6-6.5-6.8c0-2.9,0.2-11.5,0.2-12.6c0-2.1-0.1-2.1-4.3-2.1c-1.4,0-2.5,0-3.3,0.1c-0.7,0-0.9,0.1-0.9,1.3
		c-0.1,1.9-0.2,4.7-0.2,10.8c0,2.6,0,4.1,0.5,5.2c0.5,0.9,1.3,1.3,2.6,1.3c1.7,0,3.6-0.9,3.8-0.9c0.2,0,0.3,0.1,0.3,0.3
		c0,0.5-3.5,3.6-7.2,3.6c-4,0-4.9-3-4.9-7c0-2,0.3-11.6,0.3-12.3c0-0.7,0-1.4-1.1-1.4h-1.6c-0.2,0-0.4-0.1-0.4-0.3
		c0-0.5,0.4-0.5,1.2-1.1c1.8-1.3,4.4-3.3,5.7-5.2c0.3-0.4,0.4-0.8,0.8-0.8S57.7,1.1,57.7,1.5z"/>
	<path d="M90.6,9.8c-0.3,0-0.6-0.1-0.6-0.3c0-0.3,0.3-0.4,1-0.7c0.8-0.3,3.9-2,5.3-3.4c0.7-0.7,1-0.8,1.2-0.8c0.3,0,0.5,0.2,0.5,0.9
		v2.7c0,0.5,0.1,0.6,0.3,0.6c0.7,0,2.6-4,6.1-4c2,0,3.3,1.4,3.3,3.2c0,1.8-1.3,2.9-2.9,2.9c-2,0-2.4-2.1-4.2-2.1
		c-0.9,0-1.3,0.7-1.6,1c-0.9,1-1,4-1,8.3c0,4-0.1,7.2,0.4,8c0.6,0.9,2.9,1.3,3.6,1.4c0.6,0.1,1.1,0.1,1.1,0.6c0,0.4-0.7,0.4-1.1,0.4
		c-0.4,0-4.4-0.2-6-0.2c-1.7,0-5.3,0.2-5.7,0.2s-1.1,0-1.1-0.4c0-0.4,0.6-0.5,1.2-0.6c0.4-0.1,2.1-0.4,2.4-1.4
		c0.3-0.9,0.4-2.9,0.4-9.2C93.3,10.6,93.1,10,90.6,9.8z"/>
	<path d="M125,13.5c-3.2,0-7.2-0.3-11.9-0.3c-1.2,0-1.7,0-1.7,2.3c0,5.4,2.4,10.2,8.5,10.2c4.6,0,6.6-3.2,6.9-3.2
		c0.3,0,0.4,0.1,0.4,0.3c0,0.9-4.3,6.2-10,6.2c-6.2,0-11-4.5-11-11.7c0-7.5,5.7-12.7,12.4-12.7c5,0,8.8,3.7,8.8,7.6
		C127.2,13.5,126.5,13.5,125,13.5z M118.2,5.7c-4.1,0-6.2,3.6-6.2,5.4c0,0.7,0.7,0.9,3.3,0.9c3,0,7.1-0.2,7.1-2.9
		C122.4,8,121.3,5.7,118.2,5.7z"/>
</g>
</svg>
