<!-- svg symbol definitions -->
<svg xmlns="http://www.w3.org/2000/svg" style="display: none;">
	<symbol id="facebook-icon" viewBox="0 0 30 30">
		<path fill="#FFFFFF" d="M19.5,15h-2.9c0,4.7,0,10.5,0,10.5h-4.4c0,0,0-5.7,0-10.5h-2.1v-3.7h2.1V8.9c0-1.7,0.8-4.4,4.4-4.4l3.2,0
			v3.6c0,0-2,0-2.3,0c-0.4,0-0.9,0.2-0.9,1v2.2h3.3L19.5,15z"/>
	</symbol>
	<symbol id="twitter-icon" viewBox="0 0 30 30">
		<path fill="#FFFFFF" d="M22.9,11.8c0,0.2,0,0.3,0,0.5c0,5.2-3.9,11.1-11.1,11.1c-2.2,0-4.3-0.6-6-1.8c0.3,0,0.6,0.1,0.9,0.1 c1.8,0,3.5-0.6,4.8-1.7c-1.7,0-3.1-1.2-3.6-2.7c0.2,0,0.5,0.1,0.7,0.1c0.4,0,0.7,0,1-0.1c-1.8-0.4-3.1-1.9-3.1-3.8c0,0,0,0,0,0 c0.5,0.3,1.1,0.5,1.8,0.5c-1-0.7-1.7-1.9-1.7-3.2c0-0.7,0.2-1.4,0.5-2c1.9,2.4,4.8,3.9,8,4.1c-0.1-0.3-0.1-0.6-0.1-0.9 c0-2.2,1.7-3.9,3.9-3.9c1.1,0,2.1,0.5,2.8,1.2c0.9-0.2,1.7-0.5,2.5-0.9c-0.3,0.9-0.9,1.7-1.7,2.2c0.8-0.1,1.5-0.3,2.2-0.6 C24.3,10.5,23.6,11.2,22.9,11.8z"/>
	</symbol>
	<symbol id="plus-icon" viewBox="0 0 30 30">
		<path fill="#FFFFFF" d="M17.1,16.6c-0.5-0.4-1.6-1.2-1.6-1.7c0-0.6,0.2-0.9,1.1-1.6c0.9-0.7,1.6-1.9,1.6-3.1c0-1.3-0.5-2.2-1.5-3.2 H18l1.2-1c0,0-4,0-5.5,0C11,6,8.7,8,8.7,10.3c0,2.3,1.5,4.1,4.1,4.1c0.2,0,0.4,0,0.5,0c-0.2,0.3-0.3,0.7-0.3,1.1 c0,0.6,0.4,1,0.8,1.4c-0.3,0-0.6,0-1,0c-3.2,0-5.4,2.2-5.4,4.3c0,2.1,2.7,3.4,5.8,3.4c3.6,0,5.8-2.1,5.8-4.1 C19.2,18.8,18.8,17.9,17.1,16.6z M10.8,10.3c-0.3-1.9,0.7-3.4,2.2-3.4c1.5,0,2.7,1.6,3,3.6c0.3,1.9-0.6,3.2-2.1,3.1 C12.4,13.5,11,12.2,10.8,10.3z M13.3,23.6c-2.2,0-3.8-1.4-3.8-3.1c0-1.6,1.9-3,4.1-3c0.5,0,1,0.1,1.4,0.2c1.2,0.8,2.2,1.3,2.4,2.3 c0,0.2,0.1,0.4,0.1,0.6C17.5,22.3,16.4,23.6,13.3,23.6z"/>
		<polygon fill="#FFFFFF" points="26,10 23.5,10 23.5,12.5 22.2,12.5 22.2,10 19.7,10 19.7,8.8 22.2,8.8 22.2,6.3 23.5,6.3 23.5,8.8 26,8.8 	"/>
	</symbol>
	<symbol id="pintrest-icon" viewBox="0 0 30 30">
		<path fill="#FFFFFF" d="M17.2,19.7c-1.2,0-2.4-0.7-2.8-1.4c0,0-0.7,2.6-0.8,3.1c-0.5,1.8-1.9,3.6-2.1,3.7c-0.1,0.1-0.3,0.1-0.3-0.1 c0-0.2-0.4-2.5,0-4.3c0.2-0.9,1.5-6.2,1.5-6.2s-0.4-0.7-0.4-1.8c0-1.7,1-2.9,2.2-2.9c1,0,1.5,0.8,1.5,1.7c0,1-0.7,2.6-1,4 c-0.3,1.2,0.6,2.2,1.8,2.2c2.2,0,3.6-2.8,3.6-6.1c0-2.5-1.7-4.4-4.7-4.4c-3.5,0-5.6,2.6-5.6,5.5c0,1,0.3,1.7,0.8,2.2 c0.2,0.2,0.2,0.4,0.2,0.6c-0.1,0.2-0.2,0.7-0.2,0.9c-0.1,0.3-0.3,0.4-0.6,0.3C8.7,16.2,8,14.4,8,12.5c0-3.2,2.7-7.1,8.1-7.1 c4.3,0,7.2,3.1,7.2,6.5C23.4,16.3,20.9,19.7,17.2,19.7z"/>
	</symbol>
	<symbol id="email-icon" viewBox="0 0 30 30">
		<path fill="#FFFFFF" d="M25,10.8C25,9.3,23.7,8,22.2,8H7.8C6.3,8,5,9.3,5,10.8v9.4C5,21.7,6.3,23,7.8,23h14.3 c1.6,0,2.8-1.3,2.8-2.8V10.8z M7.8,10h14.3c0.4,0,0.7,0.3,0.8,0.6l-7.9,5.3l-8-5.4C7.2,10.2,7.5,10,7.8,10z M22.2,21H7.8 C7.4,21,7,20.6,7,20.2v-7.9l8.1,5.4l7.9-5.3v7.8C23,20.6,22.6,21,22.2,21z"/>
	</symbol>
	<symbol id="expand-icon" viewBox="0 0 30 30">
		<polygon fill="#FFFFFF" points="13.5,7.5 13.5,13.6 7.5,13.6 7.5,16.4 13.5,16.4 13.5,22.5 16.5,22.5 16.5,16.4 22.5,16.4 22.5,13.6 16.5,13.6 16.5,7.5 "/>
	</symbol>
	<symbol id="close-icon" viewBox="0 0 30 30">
		<polygon fill="#FFFFFF" points="7.7,10.1 12.6,15 7.7,19.9 10.1,22.3 15,17.4 19.9,22.3 22.3,19.9 17.4,15 22.3,10.1 19.9,7.7 15,12.6 10.1,7.7"/>
	</symbol>
	<symbol id="playlist-icon" viewBox="0 0 30 30">
		<rect x="5" y="9" fill="#FFFFFF" width="14.1" height="2.4"/>
		<rect x="5" y="13.3" fill="#FFFFFF" width="14.1" height="2.4"/>
		<rect x="5" y="17.5" fill="#FFFFFF" width="10.8" height="2.4"/>
		<rect x="17.4" y="17.5" fill="#FFFFFF" width="9.3" height="2.4"/>
		<rect x="20.8" y="14.1" fill="#FFFFFF" width="2.4" height="9.3"/>
	</symbol>
	<symbol id="read-time-icon" viewBox="0 0 20 20">
		<polygon fill="#999999" points="8.5,14.9 10.6,14.9 10.6,10 16.1,10 16.1,7.9 8.5,7.9 	"/>
		<path fill="#999999" d="M10,20C4.5,20,0,15.5,0,10C0,4.5,4.5,0,10,0c5.5,0,10,4.5,10,10C20,15.5,15.5,20,10,20 M10,2.3 c-4.3,0-7.7,3.5-7.7,7.7c0,4.3,3.5,7.7,7.7,7.7c4.3,0,7.7-3.5,7.7-7.7C17.7,5.7,14.3,2.3,10,2.3"/>
	</symbol>
	<symbol id="podcast-icon" viewBox="0 0 20 20">
		<path fill="#999999" d="M18.5,11V8.5C18.5,3.8,14.7,0,10,0S1.5,3.8,1.5,8.5V11C0.6,11.7,0,12.9,0,14.2C0,16.3,1.4,18,3.2,18 c0,0,0.1,0,0.1,0v0h2.5v-7.5l-1,0l-1.2,0H3.5c-0.1,0-0.1,0-0.2,0v-2c0-3.7,3-6.8,6.8-6.8s6.8,3,6.8,6.8v2c-0.1,0-0.2,0-0.2,0h0 l-1.2,0l-1.1,0V18h2.5v0c0,0,0.1,0,0.1,0c1.7,0,3.2-1.7,3.2-3.8C20,12.9,19.4,11.7,18.5,11z"/>
	</symbol>
	<symbol id="infographic-icon" viewBox="0 0 20 18">
		<rect x="0" fill="#999999" width="4" height="20"/>
		<rect x="6.6" y="4.9" fill="#999999" width="4" height="15.1"/>
		<rect x="13.3" y="10" fill="#999999" width="4" height="10"/>
	</symbol>
	<symbol id="video-icon" viewBox="0 0 20 20">
		<path fill="#999999" d="M0.8,9.2v8.1c0,1.2,1,2.2,2.2,2.2h14.9c1.2,0,2.2-1,2.2-2.2V9.2H0.8z M8.3,17.2v-4.8l5.3,2.4L8.3,17.2z"/>
		<rect x="-0.1" y="3.3" transform="matrix(-0.9379 0.3469 -0.3469 -0.9379 19.937 5.5412)" fill="#999999" width="19.2" height="2.6"/>
	</symbol>
	<symbol id="slideshow-icon" viewBox="0 -2 20 20">
		<path fill="#999999" d="M18.8,1.6V1.1c0-0.6-0.9-1.1-1.9-1.1c-1.1,0-1.9,0.5-1.9,1.1v0.1H2.7C1.2,1.2,0,2.4,0,3.9v8.5 c0,1.5,1.2,2.7,2.7,2.7h14.6c1.5,0,2.7-1.2,2.7-2.7V3.9C20,2.9,19.5,2.1,18.8,1.6z M9.3,13.4c-2.2,0-4.2-1.4-4.9-3.4 C3.7,9.8,3.3,9.2,3.3,8.5c0-0.6,0.3-1.2,0.8-1.5c0.5-2.4,2.6-4.2,5.2-4.2c2.9,0,5.3,2.4,5.3,5.3C14.6,11.1,12.2,13.4,9.3,13.4z M18.4,12.1c0,0.3-0.3,0.6-0.7,0.6c-0.4,0-0.7-0.3-0.7-0.6V6.2c0-0.3,0.3-0.6,0.7-0.6c0.4,0,0.7,0.3,0.7,0.6V12.1z M17.8,5.1 c-0.4,0-0.8-0.3-0.8-0.8c0-0.4,0.3-0.8,0.8-0.8c0.4,0,0.8,0.3,0.8,0.8C18.6,4.7,18.3,5.1,17.8,5.1z"/>
		<circle fill="#999999" cx="9.4" cy="8.2" r="4"/>
	</symbol>
	<symbol id="comment-icon" viewBox="0 -2 20 20">
		<path fill="#999999" d="M18.3,0H1.7C0.8,0,0,0.8,0,1.8v10.6c0,1,0.8,1.9,1.7,1.9h10.9l5.8,3.7l-1.4-3.7h1.2c0.9,0,1.7-0.8,1.7-1.9 V1.8C20,0.8,19.2,0,18.3,0z M10,9.6H2.5C2.3,9.6,2.2,9.3,2.2,9c0-0.3,0.1-0.6,0.2-0.6H10c0.1,0,0.2,0.3,0.2,0.6 C10.2,9.3,10.1,9.6,10,9.6z M12.7,6.6H2.5C2.3,6.6,2.2,6.3,2.2,6c0-0.3,0.1-0.6,0.3-0.6h10.3C12.9,5.4,13,5.6,13,6 C13,6.3,12.9,6.6,12.7,6.6z M17.3,3.7H2.5c-0.2,0-0.4-0.3-0.4-0.6c0-0.3,0.2-0.6,0.4-0.6h14.8c0.2,0,0.4,0.3,0.4,0.6 C17.7,3.4,17.5,3.7,17.3,3.7z"/>
	</symbol>
	<symbol id="main-facebook-icon" viewBox="0 0 32 32">
		<rect fill="#ffffff" width="32" height="32"/>
		<path fill="#37589A" d="M20.8,16h-3.2c0,5,0,11.3,0,11.3H13c0,0,0-6.2,0-11.3h-2.2v-4H13V9.5c0-1.8,0.9-4.7,4.7-4.7l3.5,0v3.9 c0,0-2.1,0-2.5,0c-0.4,0-1,0.2-1,1.1V12h3.6L20.8,16z"/>
	</symbol>
	<symbol id="main-twitter-icon" viewBox="0 0 32 32">
		<rect fill="#ffffff" width="32" height="32"/>
		<path fill="#38A8E0" d="M25.7,11c0,0.2,0,0.4,0,0.6c0,6.6-5,14.2-14.2,14.2c-2.8,0-5.5-0.8-7.7-2.2c0.4,0,0.8,0.1,1.2,0.1 c2.3,0,4.5-0.8,6.2-2.1c-2.2,0-4-1.5-4.7-3.5c0.3,0.1,0.6,0.1,0.9,0.1c0.5,0,0.9-0.1,1.3-0.2c-2.3-0.5-4-2.5-4-4.9c0,0,0,0,0-0.1 c0.7,0.4,1.4,0.6,2.3,0.6c-1.3-0.9-2.2-2.4-2.2-4.2c0-0.9,0.2-1.8,0.7-2.5c2.5,3,6.2,5,10.3,5.2c-0.1-0.4-0.1-0.7-0.1-1.1 c0-2.8,2.2-5,5-5c1.4,0,2.7,0.6,3.6,1.6c1.1-0.2,2.2-0.6,3.2-1.2c-0.4,1.2-1.2,2.1-2.2,2.8c1-0.1,2-0.4,2.9-0.8 C27.5,9.4,26.7,10.3,25.7,11z"/>
	</symbol>
	<symbol id="nature-logo" viewBox="0 0 72 16">
		<path d="M13.1,3.8c0.5,0.7,0.6,2.2,0.6,3.1c0,2,0,3.2,0,4.2c0,3.6,0,3.5,1.3,3.9c0.3,0.1,0.7,0.1,0.7,0.3 s-0.2,0.2-0.6,0.2c-0.3,0-2-0.1-2.8-0.1c-0.8,0-2.6,0.1-3,0.1c-0.5,0-0.7,0-0.7-0.2c0-0.3,0.6-0.2,1.1-0.4c0.6-0.2,1-0.3,1.1-1.1 C11,13,11,12,11,9.7c0-2.7,0-4.3-0.6-5C9.7,4,9,3.8,8,3.8c-1.1,0-2.1,0.8-2.4,1.4C5,6.1,5,7.9,5,9.7c0,2.4,0,3.5,0.2,4.3 c0.1,0.5,0.5,0.7,0.9,0.9C6.4,15,7,15,7,15.3c0,0.2-0.4,0.2-0.7,0.2S4,15.4,3.5,15.4s-2.7,0.1-3,0.1c-0.4,0-0.5,0-0.5-0.2 C0,15,0.5,15,1,14.9c0.6-0.2,1-0.3,1.1-0.9c0.1-0.9,0.1-2.6,0.1-5.2c0-1.8,0-3-0.3-3.3C1.8,5.2,1.5,5.1,1.1,5C0.7,5,0.4,5,0.4,4.8 c0-0.2,0.1-0.2,0.2-0.2c1.3-0.4,2.4-1.3,3.6-2.3C4.4,2.2,4.5,2,4.7,2C4.9,2,5,2.3,5,2.7v1.4c0,0.2,0.1,0.4,0.2,0.4 c0.5,0,1.7-2.3,4.5-2.3C11.4,2.2,12.4,2.8,13.1,3.8z"/>
		<path d="M22.5,13.8c-0.7,1-2,2.1-3.8,2.1c-1.8,0-2.5-1.4-2.5-2.4c0-2.2,2.2-3.2,3.9-4.1c2.7-1.4,2.8-1,2.8-3.9 c0-0.9,0.1-1.5-0.2-1.9c-0.4-0.7-0.9-0.9-1.7-0.9c-1.9,0-2.6,1.8-3,3.2c-0.2,0.6-1,0.9-1.5,0.9c-0.3,0-0.7-0.2-0.7-0.7 c0-1.3,2.1-4.1,5.8-4.1c1.8,0,3.8,0.3,3.8,2.6c0,1.8-0.2,6.8-0.2,7.7c0,0.9,0.2,1.8,1.1,1.8c0.9,0,1.4-0.8,1.7-0.8 c0.1,0,0.2,0.1,0.2,0.2c0,0.5-1.1,2.2-3,2.2c-1.3,0-2.1-0.9-2.4-1.8C22.7,13.8,22.6,13.7,22.5,13.8C22.5,13.7,22.5,13.7,22.5,13.8z M22.2,9.1c-0.4,0-3.6,1.5-3.6,3.7c0,1.2,0.9,1.7,1.7,1.7c0.7,0,1.3-0.4,1.8-1.1c0.6-0.8,0.6-2.2,0.6-3.7 C22.7,9.2,22.6,9.1,22.2,9.1z"/>
		<path d="M32.3,0.2c0,0.6-0.1,1.5-0.1,2c0,0.3,0.1,0.5,0.3,0.5L39,2.5c0.6,0,0.7,0.1,0.7,0.7c0,1.3-0.1,2.4-0.1,8.3 c0,1.5,0.7,2.4,2.7,2.4c1.1,0,2.3-0.5,2.7-1.4c0.3-0.6,0.3-2.4,0.3-3.9c0-3.2,0-4.7-0.3-5c-0.3-0.3-0.7-0.3-1.3-0.4 c-0.6-0.1-0.9-0.1-0.9-0.3c0-0.2,0.1-0.3,0.5-0.3l4.3-0.1c0.5,0,0.6,0.2,0.6,0.6c0,1.1-0.2,4.7-0.2,7.5c0,1.7,0,3,0.2,3.3 c0.2,0.3,0.5,0.3,1.1,0.3c0.2,0,0.7-0.1,0.8-0.1c0.1,0,0.2,0.1,0.2,0.2s-0.2,0.2-0.5,0.3c-0.6,0.1-2.8,0.7-3.9,1.1 c-0.2,0.1-0.5,0.2-0.5,0.2c-0.2,0-0.3-0.2-0.3-0.5c0-0.5,0.1-0.8,0.1-1.4c0-0.2-0.1-0.5-0.2-0.5c-0.3,0-1.9,2.2-4.5,2.2 c-1.5,0-3.7-0.9-3.7-3.9c0-1.7,0.1-6.5,0.1-7.2c0-1.2-0.1-1.2-2.4-1.2c-0.8,0-1.4,0-1.9,0.1c-0.4,0-0.5,0.1-0.5,0.7 C32.1,5.5,32,7.1,32,10.6c0,1.5,0,2.3,0.3,3c0.3,0.5,0.7,0.7,1.5,0.7c1,0,2-0.5,2.2-0.5c0.1,0,0.2,0.1,0.2,0.2c0,0.3-2,2-4.1,2 c-2.3,0-2.8-1.7-2.8-4c0-1.1,0.2-6.6,0.2-7s0-0.8-0.6-0.8h-0.9c-0.1,0-0.2-0.1-0.2-0.2c0-0.3,0.2-0.3,0.7-0.6c1-0.7,2.5-1.9,3.2-3 C31.8,0.2,31.8,0,32,0C32.3,0,32.3,0,32.3,0.2z"/>
		<path d="M51,5c-0.2,0-0.3-0.1-0.3-0.2c0-0.2,0.2-0.2,0.6-0.4c0.5-0.2,2.2-1.1,3-1.9C54.6,2,54.8,2,54.9,2 c0.2,0,0.3,0.1,0.3,0.5V4c0,0.3,0.1,0.3,0.2,0.3c0.4,0,1.5-2.3,3.5-2.3c1.1,0,1.9,0.8,1.9,1.8S60,5.6,59.1,5.6 c-1.1,0-1.4-1.2-2.4-1.2c-0.5,0-0.7,0.4-0.9,0.6c-0.5,0.6-0.6,2.3-0.6,4.7c0,2.3-0.1,4.1,0.2,4.6c0.3,0.5,1.7,0.7,2,0.8 c0.3,0.1,0.6,0.1,0.6,0.3c0,0.2-0.4,0.2-0.6,0.2c-0.2,0-2.5-0.1-3.4-0.1c-1,0-3,0.1-3.2,0.1c-0.2,0-0.6,0-0.6-0.2 c0-0.2,0.3-0.3,0.7-0.3c0.2-0.1,1.2-0.2,1.4-0.8c0.2-0.5,0.2-1.7,0.2-5.2C52.5,5.4,52.4,5.1,51,5z"/>
		<path d="M70.6,7.1c-1.8,0-4.1-0.2-6.8-0.2c-0.7,0-1,0-1,1.3c0,3.1,1.4,5.8,4.8,5.8c2.6,0,3.8-1.8,3.9-1.8 c0.2,0,0.2,0.1,0.2,0.2c0,0.5-2.4,3.5-5.7,3.5c-3.5,0-6.3-2.6-6.3-6.7C59.9,5,63.1,2,66.9,2c2.8,0,5,2.1,5,4.3 C71.8,7.1,71.4,7.1,70.6,7.1z M66.7,2.6c-2.3,0-3.5,2-3.5,3.1c0,0.4,0.4,0.5,1.9,0.5c1.7,0,4-0.1,4-1.7C69.1,3.9,68.5,2.6,66.7,2.6z "/>
	</symbol>
	<symbol id="dots-icon" viewBox="0 0 16 16">
		<circle cx="1.9" cy="7.7" r="1.9"/>
		<circle cx="8" cy="7.7" r="1.9"/>
		<circle cx="14.1" cy="7.7" r="1.9"/>
	</symbol>
	<symbol id="search-icon" viewBox="0 0 16 16">
		<path d="M15.7,14.1l-3.9-3.9C12.6,9.2,13,7.9,13,6.5C13,2.9,10.1,0,6.5,0S0,2.9,0,6.5S2.9,13,6.5,13 c1.4,0,2.7-0.4,3.7-1.2l3.9,3.9c0.2,0.2,0.5,0.3,0.8,0.3c0.3,0,0.6-0.1,0.8-0.3C16.1,15.2,16.1,14.5,15.7,14.1z M1.6,6.5 c0-2.7,2.2-4.9,4.9-4.9c2.7,0,4.9,2.2,4.9,4.9c0,2.7-2.2,4.9-4.9,4.9C3.8,11.4,1.6,9.2,1.6,6.5z"/>
	</symbol>
	<symbol id="filter-icon" viewBox="0 0 16 16">
		<path fill="#666666" d="M15,5.2H1c-0.6,0-1-0.4-1-1v-1c0-0.6,0.4-1,1-1h14c0.6,0,1,0.4,1,1v1C16,4.8,15.6,5.2,15,5.2z"/>
		<path fill="#666666" d="M12,9.5H1c-0.6,0-1-0.4-1-1v-1c0-0.6,0.4-1,1-1h11c0.6,0,1,0.4,1,1v1C13,9.1,12.6,9.5,12,9.5z"/>
		<path fill="#666666" d="M9,13.8H1c-0.6,0-1-0.4-1-1v-1c0-0.6,0.4-1,1-1h8c0.6,0,1,0.4,1,1v1C10,13.3,9.6,13.8,9,13.8z"/>
	</symbol>
	<symbol id="hamburger-icon" viewBox="0 0 16 16">
		<path d="M15,9H1C0.4,9,0,8.6,0,8s0.4-1,1-1h14c0.6,0,1,0.4,1,1S15.6,9,15,9z"/>
		<path d="M15,4H1C0.4,4,0,3.6,0,3s0.4-1,1-1h14c0.6,0,1,0.4,1,1S15.6,4,15,4z"/>
		<path d="M15,14H1c-0.6,0-1-0.4-1-1s0.4-1,1-1h14c0.6,0,1,0.4,1,1S15.6,14,15,14z"/>
	</symbol>
	<symbol id="tool-playlist-icon" viewBox="0 0 16 16">
		<rect y="2.7" width="10.4" height="1.8"/>
		<rect y="5.8" width="10.4" height="1.8"/>
		<rect y="9" width="8" height="1.8"/>
		<rect x="9.1" y="9" width="6.9" height="1.8"/>
		<rect x="11.7" y="6.4" width="1.8" height="6.9"/>
	</symbol>
	<symbol id="tool-bookmark-icon" viewBox="0 0 16 16">
		<path d="M11.8,14L8,11.6L4.2,14V3.7C4.2,2.8,5,2,6,2H10c1,0,1.7,0.8,1.7,1.7V14z M8,9.9l2.2,1.4V4.5 c0-0.3-0.3-0.6-0.6-0.6H6.4C6,3.9,5.8,4.2,5.8,4.5v6.7L8,9.9z"/>
	</symbol>
	<symbol id="tool-email-icon" viewBox="0 0 16 16">
		<path d="M16,4.3C16,3,15,2,13.7,2H2.3C1,2,0,3,0,4.3v7.5C0,13,1,14,2.3,14h11.5c1.2,0,2.3-1,2.3-2.3V4.3z M2.3,3.6 h11.5c0.3,0,0.5,0.2,0.6,0.5L8.1,8.3L1.7,4C1.8,3.8,2,3.6,2.3,3.6z M13.7,12.4H2.3c-0.4,0-0.7-0.3-0.7-0.7V5.4l6.5,4.4l6.3-4.3v6.2 C14.4,12.1,14.1,12.4,13.7,12.4z"/>
	</symbol>
	<symbol id="tool-facebook-icon" viewBox="0 0 16 16">
		<path d="M10.6,8H8.9c0,2.7,0,6,0,6H6.4c0,0,0-3.3,0-6H5.2V5.9h1.2V4.5c0-1,0.5-2.5,2.5-2.5l1.8,0v2.1 c0,0-1.1,0-1.3,0c-0.2,0-0.5,0.1-0.5,0.6v1.2h1.9L10.6,8z"/>
	</symbol>
	<symbol id="tool-twitter-icon" viewBox="0 0 16 16">
		<path d="M13.6,5.1c0,0.1,0,0.2,0,0.4c0,3.8-2.9,8.2-8.2,8.2c-1.6,0-3.1-0.5-4.4-1.3c0.2,0,0.5,0,0.7,0 c1.3,0,2.6-0.5,3.6-1.2c-1.3,0-2.3-0.9-2.7-2c0.2,0,0.4,0.1,0.5,0.1c0.3,0,0.5,0,0.8-0.1C2.6,8.9,1.6,7.7,1.6,6.3c0,0,0,0,0,0 C2,6.5,2.4,6.7,2.9,6.7C2.1,6.2,1.6,5.3,1.6,4.3c0-0.5,0.1-1,0.4-1.4c1.4,1.7,3.5,2.9,5.9,3c0-0.2-0.1-0.4-0.1-0.7 c0-1.6,1.3-2.9,2.9-2.9c0.8,0,1.6,0.3,2.1,0.9c0.7-0.1,1.3-0.4,1.8-0.7c-0.2,0.7-0.7,1.2-1.3,1.6C13.9,4,14.5,3.9,15,3.7 C14.6,4.2,14.1,4.7,13.6,5.1z"/>
	</symbol>
	<symbol id="tool-user-icon" viewBox="0 0 16 16">
		<ellipse cx="8" cy="6.3" rx="4.1" ry="4.1"/>
		<path d="M0,0h16v16H0V0z M3.8,10.7C5,11.5,6.4,12.1,8,12.1s3-0.5,4.2-1.4c1.2,0.7,2.1,1.6,2.8,2.8V1H1v12.4 C1.7,12.3,2.6,11.3,3.8,10.7z"/>
	</symbol>
</svg>
